PathFileType	4	(X/Y/Z)	C:/Users/beibeiliu/ov580/test_trc/User1\sequence.36_training_dense_right.trc
DataRate	CameraRate	NumFrames	NumMarkers	Units	OrigDataRate	OrigDataStartFrame	OrigNumFrames
120	120	14	19	mm	120	31	246
Frame#	Time	ThumbCMC			ThumbMCP			ThumbIP			ThumbTip			IndexMCP			IndexPIP			IndexTip			MiddleMCP			MiddlePIP			MiddleTip			RingMCP			RingPIP			RingTip			PinkyMCP			PinkyPIP			PinkyTip			BackHand1			BackHand2			BackHand3	
		X0	Y0	Z0	X1	Y1	Z1	X2	Y2	Z2	X3	Y3	Z3	X4	Y4	Z4	X5	Y5	Z5	X6	Y6	Z6	X7	Y7	Z7	X8	Y8	Z8	X9	Y9	Z9	X10	Y10	Z10	X11	Y11	Z11	X12	Y12	Z12	X13	Y13	Z13	X14	Y14	Z14	X15	Y15	Z15	X16	Y16	Z16	X17	Y17	Z17	X18	Y18	Z18	
30	0.25	148.097	-5.36657	49.577	129.362	-2.73667	21.1809	123.073	-0.679048	-4.20371	116.42	-2.64609	-27.241	154.609	-13.0151	-30.2438	127.726	-31.5892	-35.277	111.642	-37.3837	-7.37022	160.899	-41.8928	-32.6671	126.657	-50.6733	-27.084	125.029	-45.9673	11.2314	161.094	-64.6776	-25.1229	128.597	-65.3333	-15.6993	133.96	-59.9537	20.0321	167.356	-79.6136	-10.9789	139.257	-76.0368	-6.6915	137.935	-64.3456	20.9642	196.729	-52.9576	28.1895	195.949	-51.8894	62.5667	186.495	-17.3104	46.2662	
31	0.258333	152.64	-5.13314	50.4821	136.177	0.556332	17.7249	131.732	3.14494	-6.59841	124.298	2.28832	-32.5878	161.104	-18.6685	-29.3527	127.723	-29.1584	-34.7504	112.991	-34.2923	-3.34786	160.46	-45.0416	-33.2388	126.877	-50.3567	-25.6804	125.64	-40.2048	14.7382	157.485	-64.8579	-23.9983	126.764	-64.8894	-11.866	130.696	-54.5971	17.9751	163.556	-84.224	-9.29786	136.223	-76.2584	-5.86618	139.13	-60.9042	22.4546	195.021	-55.7671	27.9756	195.842	-53.1704	65.8123	189.738	-23.971	45.2584	
32	0.266667	155.998	-2.02265	53.0502	142.527	4.49604	17.5773	140.167	8.07581	-9.60802	134.124	4.38537	-33.7738	164.555	-19.7953	-28.9654	128.023	-25.1876	-33.5958	114.761	-27.8762	-5.16537	163.183	-45.287	-29.4338	126.153	-44.27	-24.3972	126.533	-41.1328	15.3687	157.621	-66.6456	-21.6092	125.628	-61.6144	-11.9505	132.799	-55.0775	22.1791	161.619	-84.2355	-7.57822	131.355	-78.3785	-3.55705	140.531	-61.1795	25.7518	195.653	-62.6689	30.9096	193.354	-61.7157	64.9821	192.611	-27.5666	42.9696	
33	0.275	159.215	-4.05937	51.6003	145.944	6.17755	21.9767	144.577	8.44949	-6.74486	141.318	7.45489	-34.6434	162.892	-19.0282	-31.5323	132.099	-26.2921	-34.724	117.308	-29.1749	-2.88767	163.48	-49.945	-27.6549	126.724	-45.5382	-24.4615	124.205	-38.4089	13.4414	153.239	-68.9763	-21.49	124.107	-62.7139	-9.63897	130.522	-56.9354	21.5755	156.986	-85.9905	-8.18536	129.568	-76.3861	-2.6163	137.229	-61.2145	30.0436	195.887	-63.9374	31.478	193.058	-60.7023	64.0283	191.809	-25.6913	46.5902	
34	0.283333	162.954	-5.81894	50.0415	152.663	7.06465	19.2323	151.631	5.79387	-4.53926	147.842	8.30635	-34.1863	165.913	-25.6378	-29.0709	130.345	-25.2971	-32.373	118.564	-26.7343	-1.9823	160.774	-45.9429	-30.2775	128.082	-45.3109	-24.446	126.665	-38.7176	16.5297	155.223	-67.4645	-20.3172	125.446	-62.809	-10.4103	132.35	-51.6133	24.309	155.755	-85.9691	-6.51615	129.028	-76.0151	-0.185861	137.08	-60.0082	27.5588	192.491	-67.6243	33.7005	190.949	-62.1024	68.1052	193.634	-29.1574	44.1118	
35	0.291667	164.519	-5.94663	53.6342	157.934	6.64525	18.4444	156.966	9.74263	-6.9137	153.725	5.43566	-31.0446	165.078	-22.7179	-31.8239	135.323	-30.2019	-31.9074	119.75	-25.2947	-1.68558	160.384	-49.5922	-30.8423	126.986	-46.3512	-22.9216	125.38	-42.0352	16.1191	155.801	-71.7283	-18.7438	123.868	-59.0686	-8.55542	131.334	-54.4315	26.0071	153.66	-85.7738	-7.57134	130.659	-75.4661	-2.02858	136.621	-61.3707	28.2783	195.182	-65.5618	33.0818	191.83	-63.2412	70.7136	196.022	-33.1816	45.7352	
36	0.3	168.409	-6.11737	50.0929	159.661	5.30977	21.994	163.686	8.10304	-10.2454	158.864	8.34248	-32.1474	167.424	-28.4904	-30.8963	135.027	-28.2111	-33.2849	121.546	-29.2318	-1.50762	161.744	-48.1551	-30.2566	129.2	-47.1252	-23.6732	125.603	-36.8822	16.4571	156.312	-70.9376	-18.5633	123.862	-60.5833	-7.34152	130.819	-52.6322	24.2526	155.498	-89.7854	-3.66073	126.454	-74.5403	2.56258	133.576	-59.2154	26.2192	192.867	-67.4162	33.3326	193.473	-63.0312	65.7647	196.136	-33.0893	48.2314	
37	0.308333	167.391	-7.14575	53.3128	162.637	7.13045	21.7827	167.51	8.56277	-10.5947	164.011	8.5123	-32.8105	169.136	-29.1203	-28.7716	136.968	-32.3619	-32.9756	119.997	-24.5298	-2.22853	162.619	-52.5071	-29.7571	128.642	-49.4857	-22.5773	127.174	-40.373	16.5421	156.46	-72.9332	-18.8705	123.402	-60.4178	-7.79828	128.166	-50.9267	21.729	152.394	-90.9037	-4.0516	126.647	-74.6834	2.07766	136.447	-58.7139	28.631	193.841	-70.5385	35.5015	193.208	-68.0679	67.0882	197.431	-35.1504	43.1994	
38	0.316667	170.423	-6.00048	53.6361	166.626	6.08574	22.0405	171.756	7.61404	-8.91776	167.396	10.0315	-29.7178	167.42	-30.1587	-31.1228	136	-29.1168	-32.8914	121.85	-25.5908	-0.705804	163.642	-56.2337	-28.2176	130.305	-46.244	-24.379	127.567	-35.6209	15.6946	153.323	-70.7781	-19.6989	124.013	-62.815	-10.971	127.896	-49.7055	21.4025	153.806	-90.3868	-2.72498	127.117	-77.678	-0.979801	133.914	-59.4149	25.6593	191.435	-71.1211	35.5754	192.357	-65.5685	67.0184	199.446	-37.1998	44.734	
39	0.325	173.142	-2.67477	52.4903	171.451	3.71218	18.6285	174.742	3.57445	-7.88843	171.28	9.27165	-28.873	173.343	-28.6204	-27.6404	139.812	-27.9243	-35.4928	121.657	-23.1471	-3.88362	163.262	-52.583	-30.192	128.566	-45.8778	-22.2036	129.192	-37.7531	16.4625	151.451	-73.8621	-19.2957	123.726	-59.5509	-10.089	129.579	-49.2582	22.6842	153.108	-87.6294	-3.94735	125.943	-74.1884	0.179072	134.998	-59.6912	28.9357	190.704	-75.3231	35.6456	189.474	-69.0124	71.1712	200.248	-37.029	44.7888	
40	0.333333	175.987	-5.07132	50.4587	171.423	3.30789	21.1412	175.914	6.36031	-6.29582	176.128	8.38531	-29.1467	173.697	-30.0413	-29.2234	139.884	-31.6561	-33.7473	123.016	-24.663	-0.25092	163.627	-57.8636	-27.9288	131.625	-46.2789	-24.5225	128.742	-36.7787	15.7392	154.015	-76.6528	-16.0556	123.927	-60.2187	-10.1923	126.927	-52.0609	22.1416	149.403	-92.484	-2.2779	123.857	-75.0419	1.65915	132.123	-60.6912	29.9461	190.26	-74.0805	35.2399	190.847	-69.6457	70.8762	197.475	-41.0677	46.364	
41	0.341667	175.202	-6.98934	51.6254	171.54	5.70436	23.0652	177.636	4.06642	-6.32927	178.06	10.1441	-30.9898	173.554	-28.8941	-29.7133	139.318	-29.7813	-33.409	123.579	-23.2129	-4.07245	161.848	-54.8391	-29.8955	129.424	-47.7763	-22.1283	130.078	-38.9917	17.4865	150.952	-75.0973	-18.1145	124.531	-59.68	-11.8351	130.348	-51.7528	24.527	150.159	-92.7563	-0.641364	125.905	-71.0738	2.48227	131.662	-60.4923	29.3296	190.659	-75.7813	37.8709	188.08	-69.8025	68.174	198.457	-37.8438	46.9274	
42	0.35	175.648	-8.30799	51.0025	170.712	3.99001	23.2965	177.232	6.7345	-7.11123	177.919	12.6068	-31.1518	170.12	-32.3819	-30.4937	140.511	-31.5137	-32.7838	124.439	-25.4127	-2.6574	161.214	-57.4088	-29.4126	130.615	-48.9905	-24.3488	128.259	-37.683	15.4469	153.867	-71.8379	-17.3563	123.56	-58.8292	-9.38196	128.531	-48.2328	20.8074	149.332	-92.7934	-1.18685	124.097	-74.6673	-0.0240539	133.263	-58.942	30.3073	190.708	-75.1355	37.6278	188.801	-70.9755	68.3976	198.738	-38.9088	43.7729	
43	0.358333	175.733	-4.7224	51.2701	169.49	3.5284	23.0079	173.149	8.00476	-4.40397	172.065	12.7435	-26.9521	173.943	-32.4602	-27.5734	137.077	-27.1856	-32.3229	123.875	-23.7152	-3.00852	165.803	-55.4295	-26.1957	131.121	-43.7486	-24.7643	127.145	-35.6621	12.5269	155.746	-73.3541	-17.7176	123.837	-57.4574	-8.49876	128.488	-52.659	22.5076	149.434	-92.2951	-3.42168	127.063	-72.5707	-0.470286	133.55	-59.7884	28.5982	190.999	-73.6854	37.5851	190.744	-69.7325	68.7364	197.401	-40.8782	48.2294	
